<?xml version="1.0" encoding="UTF-8" standalone="no"?>
<!-- Generator: Adobe Illustrator 16.0.0, SVG Export Plug-In . SVG Version: 6.00 Build 0)  -->

<svg
   xmlns:dc="http://purl.org/dc/elements/1.1/"
   xmlns:cc="http://creativecommons.org/ns#"
   xmlns:rdf="http://www.w3.org/1999/02/22-rdf-syntax-ns#"
   xmlns:svg="http://www.w3.org/2000/svg"
   xmlns="http://www.w3.org/2000/svg"
   xmlns:xlink="http://www.w3.org/1999/xlink"
   xmlns:sodipodi="http://sodipodi.sourceforge.net/DTD/sodipodi-0.dtd"
   xmlns:inkscape="http://www.inkscape.org/namespaces/inkscape"
   version="1.1"
   id="Livello_1"
   x="0px"
   y="0px"
   width="55.433002"
   height="54.477291"
   viewBox="0 0 55.433002 54.477291"
   enable-background="new 0 0 300 295"
   xml:space="preserve"
   inkscape:version="0.92.2 (5c3e80d, 2017-08-06)"
   sodipodi:docname="Adobe_Photoshop.svg"><metadata
     id="metadata66"><rdf:RDF><cc:Work
         rdf:about=""><dc:format>image/svg+xml</dc:format><dc:type
           rdf:resource="http://purl.org/dc/dcmitype/StillImage" /></cc:Work></rdf:RDF></metadata><defs
     id="defs64"><radialGradient
       id="SVGID_1_-1"
       cx="63.028801"
       cy="4.9994998"
       r="91.000603"
       gradientTransform="matrix(0.9894,0,0,1,-11.5275,0)"
       gradientUnits="userSpaceOnUse"><stop
         offset="0.2308"
         style="stop-color:#419AF2"
         id="stop253" /><stop
         offset="0.5549"
         style="stop-color:#096CD0"
         id="stop255" /><stop
         offset="1"
         style="stop-color:#003E7F"
         id="stop257" /></radialGradient><linearGradient
       y2="240.522"
       x2="152.1362"
       y1="-2.4779999"
       x1="37.1362"
       gradientUnits="userSpaceOnUse"
       id="SVGID_3_"><stop
         id="stop35"
         style="stop-color:#A0CBFF"
         offset="0" /><stop
         id="stop37"
         style="stop-color:#A0CBFE"
         offset="0.3941" /><stop
         id="stop39"
         style="stop-color:#8EC2FC"
         offset="0.583" /><stop
         id="stop41"
         style="stop-color:#83BCFB"
         offset="0.7838" /><stop
         id="stop43"
         style="stop-color:#7FBAFB"
         offset="1" /></linearGradient><linearGradient
       id="SVGID_4_"
       gradientUnits="userSpaceOnUse"
       x1="102.6431"
       y1="-34.2061"
       x2="218.0972"
       y2="209.7536"><stop
         offset="0"
         style="stop-color:#A0CBFF"
         id="stop50" /><stop
         offset="0.3941"
         style="stop-color:#A0CBFE"
         id="stop52" /><stop
         offset="0.583"
         style="stop-color:#8EC2FC"
         id="stop54" /><stop
         offset="0.7838"
         style="stop-color:#83BCFB"
         id="stop56" /><stop
         offset="1"
         style="stop-color:#7FBAFB"
         id="stop58" /></linearGradient><radialGradient
       gradientUnits="userSpaceOnUse"
       gradientTransform="matrix(0.9894,0,0,1,-11.5275,0)"
       r="91.000603"
       cy="4.9994998"
       cx="63.028801"
       id="radialGradient3329"><stop
         id="stop3331"
         style="stop-color:#419AF2"
         offset="0.2308" /><stop
         id="stop3333"
         style="stop-color:#096CD0"
         offset="0.5549" /><stop
         id="stop3335"
         style="stop-color:#003E7F"
         offset="1" /></radialGradient><radialGradient
       inkscape:collect="always"
       xlink:href="#SVGID_1_-1"
       id="radialGradient3275"
       gradientUnits="userSpaceOnUse"
       gradientTransform="matrix(3.1689194,0,0,3.194992,-50.799119,-15.974962)"
       cx="63.028801"
       cy="4.9994998"
       r="91.000603" /><radialGradient
       inkscape:collect="always"
       xlink:href="#SVGID_1_-1-1"
       id="radialGradient3275-1"
       gradientUnits="userSpaceOnUse"
       gradientTransform="matrix(3.1689194,0,0,3.194992,-50.799119,-15.974962)"
       cx="63.028801"
       cy="4.9994998"
       r="91.000603" /><radialGradient
       id="SVGID_1_-1-1"
       cx="63.028801"
       cy="4.9994998"
       r="91.000603"
       gradientTransform="matrix(0.9894,0,0,1,-11.5275,0)"
       gradientUnits="userSpaceOnUse"><stop
         offset="0.2308"
         style="stop-color:#419AF2"
         id="stop253-5" /><stop
         offset="0.5549"
         style="stop-color:#096CD0"
         id="stop255-2" /><stop
         offset="1"
         style="stop-color:#003E7F"
         id="stop257-7" /></radialGradient><radialGradient
       inkscape:collect="always"
       xlink:href="#SVGID_1_-1-3"
       id="radialGradient3275-3"
       gradientUnits="userSpaceOnUse"
       gradientTransform="matrix(3.1689194,0,0,3.194992,-50.799119,-15.974962)"
       cx="63.028801"
       cy="4.9994998"
       r="91.000603" /><radialGradient
       id="SVGID_1_-1-3"
       cx="63.028801"
       cy="4.9994998"
       r="91.000603"
       gradientTransform="matrix(0.9894,0,0,1,-11.5275,0)"
       gradientUnits="userSpaceOnUse"><stop
         offset="0.2308"
         style="stop-color:#419AF2"
         id="stop253-3" /><stop
         offset="0.5549"
         style="stop-color:#096CD0"
         id="stop255-7" /><stop
         offset="1"
         style="stop-color:#003E7F"
         id="stop257-4" /></radialGradient><filter
       inkscape:collect="always"
       id="filter4175"><feGaussianBlur
         inkscape:collect="always"
         stdDeviation="2.23125"
         id="feGaussianBlur4177" /></filter><radialGradient
       inkscape:collect="always"
       xlink:href="#SVGID_1_-1"
       id="radialGradient4184"
       gradientUnits="userSpaceOnUse"
       gradientTransform="matrix(4.3903993,0,0,4.5041777,-128.1984,-82.96075)"
       cx="63.028801"
       cy="4.9994998"
       r="91.000603" /></defs><sodipodi:namedview
     pagecolor="#ffffff"
     bordercolor="#666666"
     borderopacity="1"
     objecttolerance="10"
     gridtolerance="10"
     guidetolerance="10"
     inkscape:pageopacity="0"
     inkscape:pageshadow="2"
     inkscape:window-width="1920"
     inkscape:window-height="1027"
     id="namedview62"
     showgrid="false"
     inkscape:zoom="1.759322"
     inkscape:cx="-37.933792"
     inkscape:cy="-11.089124"
     inkscape:window-x="1912"
     inkscape:window-y="-8"
     inkscape:window-maximized="1"
     inkscape:current-layer="g4179" /><g
     id="g4179"
     transform="matrix(0.15398056,0,0,0.15389065,4.6194168,4.5397742)"><rect
       style="fill:#1a1a1a"
       x="-1.570137e-006"
       y="0"
       width="300"
       height="295"
       id="rect259-6" /><path
       sodipodi:nodetypes="cccccscsccccccsccccscccsccssccccccssccss"
       id="rect259-3"
       d="M 0,0 V 295 H 300 V 0 Z m 107.09375,86.65625 c 15.778,0 27.0095,3.69575 34.5625,10.21875 7.219,6.164 12.09375,16.663 12.09375,28.625 0,11.962 -3.69025,21.77325 -10.40625,28.65625 -8.729,8.881 -18.893,14.11575 -36.25,14.84375 -4.795,0.201 -9.25,0.25 -9.25,0.25 v 38.90625 H 72.5 v -121 c 0,0 18.97975,-0.5 34.59375,-0.5 z m -2.53125,19.1875 c -3.70673,-0.0267 -6.71875,0.0937 -6.71875,0.0937 v 41.78125 c 2.754,0.268 4.4805,0.14275 8.5625,0.0937 13.598,-0.163 22,-8.4325 22,-20.9375 0,-11.234 -6.91475,-20.4595 -19.96875,-20.9375 -1.30075,-0.0475 -2.63942,-0.0848 -3.875,-0.0937 z m 93.90625,8.4375 c 10.407,0 18.7145,3.4195 24.1875,6.1875 v 20.375 c -4.019,-2.218 -15.61525,-7.15625 -23.28125,-7.15625 -6.758,0 -10.5625,2.762 -10.5625,7.375 0,4.248 3.45325,6.46375 14.40625,10.34375 16.976,5.908 24.10025,14.58 24.28125,27.875 0,16.805 -12.9405,30.186 -38.6875,29.375 -8.835,-0.278 -18.65125,-3.77975 -25.40625,-7.46875 v -20.125 h 0.0312 c 5.109,3.135 17.157,7.8125 25.375,7.8125 8.396,0 11.84375,-2.9495 11.84375,-7.5625 0,-4.619 -2.718,-9.46075 -13.125,-12.96875 -18.439,-6.279 -25.559,-13.7925 -25.375,-24.3125 0,-16.991 14.2225,-29.75 36.3125,-29.75 z"
       style="fill:#000000;filter:url(#filter4175)"
       inkscape:connector-curvature="0" /><path
       id="rect259"
       d="M -57.818441,-60.439859 V 355.43986 H 357.81844 V -60.439859 Z M 90.555267,56.085761 c 21.859733,0 37.420483,5.210127 47.884833,14.406003 10.00161,8.689772 16.75536,23.49086 16.75536,40.354426 0,16.86357 -5.11268,30.6951 -14.4174,40.39849 -12.09365,12.52009 -26.17543,19.89984 -50.222793,20.92615 -6.643263,0.28336 -12.815471,0.35244 -12.815471,0.35244 v 54.84854 H 42.627139 V 56.790642 c 0,0 26.295613,-0.704881 47.928128,-0.704881 z M 87.04833,83.135565 c -5.135512,-0.03764 -9.308534,0.132095 -9.308534,0.132095 v 58.90161 c 3.815547,0.37781 6.207537,0.20124 11.862969,0.13209 18.839435,-0.22979 30.480035,-11.88781 30.480035,-29.51688 0,-15.837268 -9.58008,-28.843025 -27.665826,-29.516891 -1.802133,-0.06696 -3.656802,-0.119548 -5.368644,-0.132095 z m 130.103,11.894865 c 14.41845,0 25.92813,4.82068 33.51073,8.7229 v 28.7239 c -5.56815,-3.12686 -21.63425,-10.08861 -32.25516,-10.08861 -9.36291,0 -14.63388,3.89376 -14.63388,10.39699 0,5.98867 4.78433,9.11235 19.95923,14.58222 23.51951,8.32888 33.38984,20.55433 33.64061,39.29711 0,23.69105 -17.9285,42.55507 -53.59984,41.41176 -12.2405,-0.39192 -25.84049,-5.32855 -35.19925,-10.52916 v -28.37146 h 0.0432 c 7.0783,4.4196 23.77027,11.01377 35.15595,11.01377 11.63229,0 16.409,-4.1581 16.409,-10.66133 0,-6.51169 -3.76567,-13.3374 -18.18411,-18.28285 -25.54643,-8.85189 -35.41088,-19.44413 -35.15596,-34.27483 0,-23.95326 19.70466,-41.94041 50.30938,-41.94041 z"
       style="fill:url(#radialGradient4184);stroke-width:1.39755619"
       inkscape:connector-curvature="0" /></g></svg>